<svg fill="#4270BA" width="64px" height="30px" viewBox="-11.88 -11.88 59.76 59.76" xmlns="http://www.w3.org/2000/svg"><g id="SVGRepo_bgCarrier" stroke-width="0"><rect x="-11.88" y="-11.88" width="59.76" height="59.76" rx="29.88" fill="#DDF0FF" strokewidth="0"></rect></g><g id="SVGRepo_tracerCarrier" stroke-linecap="round" stroke-linejoin="round"></g><g id="SVGRepo_iconCarrier"> <title>employee_solid</title> <g id="aad88ad3-6d51-4184-9840-f392d18dd002" data-name="Layer 3"> <circle cx="16.86" cy="9.73" r="6.46"></circle> <rect x="21" y="28" width="7" height="1.4"></rect> <path d="M15,30v3a1,1,0,0,0,1,1H33a1,1,0,0,0,1-1V23a1,1,0,0,0-1-1H26V20.53a1,1,0,0,0-2,0V22H22V18.42A32.12,32.12,0,0,0,16.86,18a26,26,0,0,0-11,2.39,3.28,3.28,0,0,0-1.88,3V30Zm17,2H17V24h7v.42a1,1,0,0,0,2,0V24h6Z"></path> </g> </g></svg>