<svg fill="#000000" width="88px" height="88px"
 viewBox="0 0 24 24" id="approved-file-2" data-name="Flat Line" 
xmlns="http://www.w3.org/2000/svg" class="icon flat-line"><g id="SVGRepo_bgCarrier" stroke-width="0"></g>
<g id="SVGRepo_tracerCarrier" stroke-linecap="round" stroke-linejoin="round"></g><g id="SVGRepo_iconCarrier">
<path id="secondary" d="M10,20.5A6.5,6.5,0,0,1,16.5,14a4.19,4.19,0,0,1,.5,0V5H15V3H4A1,1,0,0,0,3,4V20a1,1,0,0,0,1,1h6A4.19,4.19,0,0,1,10,20.5Z"
 style="fill: #2b84b1; stroke-width:0.24000000000000005;"></path><polyline id="primary" 
 points="15 19 17 21 21 17" style="fill: none; stroke: #000000; stroke-linecap: round; stroke-linejoin: round; stroke-width:0.24000000000000005;">
 </polyline><path id="primary-2" data-name="primary" d="M11,21H4a1,1,0,0,1-1-1V4A1,1,0,0,1,4,3H15l2,2V15"
  style="fill: none; stroke: #000000; stroke-linecap: round; stroke-linejoin: round; stroke-width:0.24000000000000005;">
  </path><path id="primary-3" data-name="primary" d="M7,13h3M7,9h6m2-6V5h2Z"
 style="fill: none; stroke: #000000; stroke-linecap: round; stroke-linejoin: round; stroke-width:0.24000000000000005;"></path></g></svg>