<svg width="29" height="29" viewBox="0 0 29 29" fill="none" xmlns="http://www.w3.org/2000/svg">
<path fill-rule="evenodd" clip-rule="evenodd" d="M2.19546 0.715942C1.36425 0.715942 0.69043 1.38976 0.69043 2.22097V26.8413C0.69043 27.6725 1.36425 28.3463 2.19545 28.3463H26.8158C27.647 28.3463 28.3208 27.6725 28.3208 26.8413V2.22097C28.3208 1.38977 27.647 0.715942 26.8158 0.715942H2.19546ZM2.40467 26.6321V2.43019H26.6066V26.6321H2.40467ZM11.914 7.19498C11.4406 7.19498 11.0569 7.57873 11.0569 8.0521C11.0569 8.52548 11.4406 8.90922 11.914 8.90922H20.9847C21.458 8.90922 21.8418 8.52548 21.8418 8.0521C21.8418 7.57873 21.458 7.19498 20.9847 7.19498H11.914ZM11.914 13.674C11.4406 13.674 11.0569 14.0578 11.0569 14.5311C11.0569 15.0045 11.4406 15.3883 11.914 15.3883H20.9847C21.458 15.3883 21.8418 15.0045 21.8418 14.5311C21.8418 14.0578 21.458 13.674 20.9847 13.674H11.914ZM11.914 20.1531C11.4406 20.1531 11.0569 20.5368 11.0569 21.0102C11.0569 21.4836 11.4406 21.8673 11.914 21.8673H20.9847C21.458 21.8673 21.8418 21.4836 21.8418 21.0102C21.8418 20.5368 21.458 20.1531 20.9847 20.1531H11.914ZM9.32239 8.05204C9.32239 8.7677 8.74224 9.34785 8.02658 9.34785C7.31093 9.34785 6.73077 8.7677 6.73077 8.05204C6.73077 7.33639 7.31093 6.75623 8.02658 6.75623C8.74224 6.75623 9.32239 7.33639 9.32239 8.05204ZM8.02658 15.8269C8.74224 15.8269 9.32239 15.2467 9.32239 14.5311C9.32239 13.8154 8.74224 13.2353 8.02658 13.2353C7.31093 13.2353 6.73077 13.8154 6.73077 14.5311C6.73077 15.2467 7.31093 15.8269 8.02658 15.8269ZM9.32239 21.0102C9.32239 21.7259 8.74224 22.306 8.02658 22.306C7.31093 22.306 6.73077 21.7259 6.73077 21.0102C6.73077 20.2945 7.31093 19.7144 8.02658 19.7144C8.74224 19.7144 9.32239 20.2945 9.32239 21.0102Z" fill="#1B1D1F"/>
</svg>
