<svg width="37" height="37" viewBox="0 0 37 37" fill="none" xmlns="http://www.w3.org/2000/svg">
<path d="M2.37491 22.0444L7.24978 26.9192L12.1247 22.0444" stroke="#1B1D1F" stroke-width="1.71424" stroke-linecap="round" stroke-linejoin="round"/>
<path d="M13.3528 29.4411C15.6859 30.5585 18.3191 30.8874 20.8554 30.3783C23.3918 29.8691 25.694 28.5494 27.4151 26.6181C29.1362 24.6867 30.1831 22.2483 30.3979 19.6703C30.6127 17.0923 29.9838 14.5143 28.6061 12.3247C27.2283 10.1352 25.1763 8.45268 22.7592 7.53077C20.342 6.60886 17.6908 6.49748 15.2048 7.21339C12.7189 7.92931 10.533 9.43374 8.97642 11.5C7.41986 13.5663 6.57699 16.0825 6.5748 18.6694L7.24978 26.1693" stroke="#1B1D1F" stroke-width="1.71424" stroke-linecap="round" stroke-linejoin="round"/>
<path d="M18.4996 12.6696V19.4194L24.4994 21.6694" stroke="#1B1D1F" stroke-width="1.71424" stroke-linecap="round" stroke-linejoin="round"/>
</svg>
